<?xml version="1.0" standalone="no"?><!DOCTYPE svg PUBLIC "-//W3C//DTD SVG 1.1//EN" "http://www.w3.org/Graphics/SVG/1.1/DTD/svg11.dtd"><svg t="1762864355098" class="icon" viewBox="0 0 1024 1024" version="1.1" xmlns="http://www.w3.org/2000/svg" p-id="12191" xmlns:xlink="http://www.w3.org/1999/xlink" width="200" height="200"><path d="M512 63.2L160.8 226.4v244.8c0 226.4 149.6 437.6 351.2 489.6 201.6-51.2 351.2-263.2 351.2-489.6V226.4L512 63.2z m287.2 408c0 96.8-31.2 193.6-88 272.8-52.8 73.6-122.4 126.4-199.2 149.6-76-24-146.4-76-199.2-149.6-56.8-79.2-88-176.8-88-272.8V267.2L512 134.4l287.2 133.6v203.2zM458.4 592l204-204 45.6 45.6L504 637.6l-45.6 45.6-45.6-45.6-90.4-90.4 45.6-45.6L458.4 592z" p-id="12192" fill="#2c2c2c"></path></svg>