<?xml version="1.0" standalone="no"?><!DOCTYPE svg PUBLIC "-//W3C//DTD SVG 1.1//EN" "http://www.w3.org/Graphics/SVG/1.1/DTD/svg11.dtd"><svg t="1762857119932" class="icon" viewBox="0 0 1024 1024" version="1.1" xmlns="http://www.w3.org/2000/svg" p-id="66168" xmlns:xlink="http://www.w3.org/1999/xlink" width="200" height="200"><path d="M711.11168 226.56L512 82.48832 312.88832 226.59072v719.19104a28.4416 28.4416 0 0 1-28.45696 28.43136 28.4416 28.4416 0 0 1-28.43648-28.43136V267.7504l-11.776 8.53504a28.45184 28.45184 0 0 1-33.33632-46.08l267.74528-193.792a56.89344 56.89344 0 0 1 66.72896 0l267.74528 193.7664a28.44672 28.44672 0 1 1-33.33632 46.08l-11.776-8.50432v678.03136c0 15.70816-12.73344 28.4416-28.44672 28.4416s-28.44672-12.72832-28.44672-28.4416V226.56z" p-id="66169"></path><path d="M881.78176 945.78176v-398.22336h-142.22336a28.44672 28.44672 0 0 1 0-56.88832h142.22336c31.42144 0 56.88832 25.472 56.88832 56.88832v398.22336a28.44672 28.44672 0 1 1 0 56.89344H85.33504a28.44672 28.44672 0 0 1 0-56.89344v-398.22336c0-31.41632 25.472-56.88832 56.88832-56.88832h142.22336a28.44672 28.44672 0 0 1 0 56.88832H142.22336v398.22336h739.5584z" p-id="66170"></path><path d="M643.84 655.04256c-1.44896-5.8112-8.70912-10.16832-14.52032-10.16832-53.73952 0-95.872-43.57632-95.872-95.86688 0-4.35712-1.44896-10.1632-5.8112-13.07648-2.89792-2.89792-8.70912-5.8112-13.07136-5.8112h-2.90304c-4.36224 0-10.16832 1.45408-13.07648 5.8112-2.90304 2.90816-5.8112 8.71936-5.8112 13.07648 0 53.74464-43.57632 95.86688-95.86688 95.86688-10.16832 0-18.88256 8.71424-18.88256 18.88256 0 10.1632 8.71424 18.88256 18.88256 18.88256 8.71424 0 17.42848-1.44896 26.14272-2.90304v55.1936c0 50.8416 40.66816 91.50976 91.50976 91.50976 50.8416 0 91.50976-40.66816 91.50976-91.50976v-53.73952c7.26016 1.44896 14.52032 1.44896 21.79072 1.44896 5.8112 0 13.07136-2.90304 15.96928-8.71424 2.9184-5.81632 2.9184-13.07648 0.01024-18.88256z m-72.62208 15.9744v63.90784c0 30.50496-24.68864 55.1936-55.1936 55.1936s-55.19872-24.68864-55.19872-55.1936V666.65984c14.52544-7.26528 27.5968-17.42848 37.76512-30.50496v90.05568c0 5.8112 2.90304 13.07648 8.71424 15.97952 5.8112 2.90304 13.07136 2.90304 18.88256 0s8.71936-8.71424 8.71936-15.97952v-84.24448c10.15808 11.6224 23.23968 20.33664 37.76 27.60192-1.44896-0.00512-1.44896 1.44896-1.44896 1.44896zM423.20896 442.12224c0-20.33664-15.97952-37.76512-37.76512-37.76512-20.33664 0-37.76512 15.97952-37.76512 37.76512 0 20.33664 15.97952 37.76512 37.76512 37.76512 21.7856-1.4592 37.76512-17.4336 37.76512-37.76512zM640.78848 404.35712c-20.33152 0-37.76 15.97952-37.76 37.76512 0 20.33664 15.97952 37.76512 37.76 37.76512 20.34176 0 37.77024-15.9744 37.77024-37.76512 0-20.33664-17.42848-37.76512-37.77024-37.76512z" p-id="66171"></path></svg>