<?xml version="1.0" standalone="no"?><!DOCTYPE svg PUBLIC "-//W3C//DTD SVG 1.1//EN" "http://www.w3.org/Graphics/SVG/1.1/DTD/svg11.dtd"><svg t="1762864426390" class="icon" viewBox="0 0 1024 1024" version="1.1" xmlns="http://www.w3.org/2000/svg" p-id="15939" xmlns:xlink="http://www.w3.org/1999/xlink" width="200" height="200"><path d="M626.944 201.642667v42.666666H327.253333v-42.666666h299.733334z" fill="#2c2c2c" p-id="15940"></path><path d="M106.666667 884.138667V424.96l0.085333-0.896c6.485333-74.24 27.477333-147.541333 49.621333-208.341333l0.042667-0.128 13.098667-33.664a1223.253333 1223.253333 0 0 1 53.76-114.474667c2.090667-3.882667 3.754667-6.912 4.949333-8.96l1.28-2.389333 0.426667-0.64 0.085333-0.213334c0.085333 0 1.28 0.682667 18.474667 10.666667l-18.432-10.752 18.517333-31.829333 18.346667 31.914666-18.432 10.666667 18.474666-10.624v0.042667l0.170667 0.213333 0.426667 0.725333 1.536 2.730667 5.76 10.325333c4.906667 8.832 11.776 21.418667 19.669333 36.394667 15.786667 29.909333 35.754667 69.76 52.352 108.970667l7.381333 18.133333c7.04 18.005333 13.098667 35.754667 17.493334 52.181333l1.834666 4.821334a30.933333 30.933333 0 0 0 28.288 17.92h150.016a30.933333 30.933333 0 0 0 28.330667-17.92l1.706667-4.821334c5.973333-22.016 15.232-46.336 24.874666-70.016l0.128-0.298666 12.928-29.354667c13.354667-29.141333 27.434667-57.173333 39.168-79.573333a1951.146667 1951.146667 0 0 1 25.258667-46.72l1.536-2.688 0.426667-0.768 0.128-0.170667v-0.085333l18.346666-32.128 18.645334 32-18.474667 10.709333 18.474667-10.666667h0.042666l0.085334 0.213334 0.384 0.64 1.322666 2.389333c1.152 2.048 2.858667 5.077333 4.949334 8.96 4.224 7.765333 10.154667 19.029333 17.194666 33.194667 13.994667 28.288 32.341333 68.266667 49.664 114.944l8.362667 23.381333c19.2 55.850667 35.968 120.106667 41.642667 185.088l0.128 0.896v115.882667h-42.666667v-113.834667c-5.376-60.202667-21.077333-120.618667-39.424-174.037333l-8.064-22.528A1172.650667 1172.650667 0 0 0 709.12 119.466667l-4.394667-8.661334c-2.432 4.565333-5.12 9.386667-7.850666 14.634667a1489.066667 1489.066667 0 0 0-50.645334 105.813333c-9.514667 23.466667-17.877333 45.568-23.04 64.810667v0.128a73.557333 73.557333 0 0 1-71.253333 54.101333H401.92a73.6 73.6 0 0 1-69.333333-48.128l-1.877334-5.973333-0.042666-0.128c-3.882667-14.549333-9.429333-30.72-16.085334-47.658667l-6.997333-17.194666a1446.186667 1446.186667 0 0 0-50.773333-105.685334c-2.773333-5.290667-5.546667-10.24-8.021334-14.848l-4.394666 8.789334c-13.525333 27.306667-31.232 65.92-47.914667 110.890666-21.376 58.666667-40.96 127.701333-47.104 196.522667v457.216a65.28 65.28 0 0 0 65.152 65.152h362.197333v42.666667H214.485333A107.946667 107.946667 0 0 1 106.666667 884.181333z" fill="#2c2c2c" p-id="15941"></path><path d="M561.237333 665.813333a123.690667 123.690667 0 0 1 160.426667-12.672 124.245333 124.245333 0 0 1 159.445333 13.056h0.042667l4.394667 4.608a124.416 124.416 0 0 1-4.266667 170.666667l-0.128 0.128a104.96 104.96 0 0 1-7.978667 7.253333l-151.978666 151.936-159.957334-159.957333a123.605333 123.605333 0 0 1 0-175.018667z m145.152 30.08a81.066667 81.066667 0 0 0-114.986666 0.085334 80.938667 80.938667 0 0 0 0 114.688l129.792 129.792 123.093333-123.093334 1.194667-0.896 5.546666-5.034666c31.573333-32 31.488-83.370667 0.128-114.944a81.621333 81.621333 0 0 0-114.688-0.341334l-15.104 14.848-14.933333-15.104zM300.714667 458.026667c0-26.026667 10.410667-50.176 27.477333-67.712l3.328-2.816a21.376 21.376 0 0 1 27.221333 32.554666l-3.370666 3.84a54.570667 54.570667 0 0 0 42.410666 88.576 54.613333 54.613333 0 0 0 54.485334-54.442666 21.333333 21.333333 0 0 1 42.197333-4.309334l0.426667 4.266667 0.256 5.632a54.613333 54.613333 0 0 0 54.186666 48.853333 54.528 54.528 0 0 0 42.453334-88.576l-3.413334-3.84-2.688-3.413333a21.333333 21.333333 0 0 1 29.994667-29.141333l3.285333 2.816 6.058667 6.826666a97.194667 97.194667 0 0 1-75.690667 157.994667 96.938667 96.938667 0 0 1-75.776-36.522667 96.896 96.896 0 0 1-75.776 36.522667 97.237333 97.237333 0 0 1-97.066666-97.109333z" fill="#2c2c2c" p-id="15942"></path></svg>