<?xml version="1.0" standalone="no"?><!DOCTYPE svg PUBLIC "-//W3C//DTD SVG 1.1//EN" "http://www.w3.org/Graphics/SVG/1.1/DTD/svg11.dtd"><svg t="1762864393850" class="icon" viewBox="0 0 1024 1024" version="1.1" xmlns="http://www.w3.org/2000/svg" p-id="14491" xmlns:xlink="http://www.w3.org/1999/xlink" width="200" height="200"><path d="M755.1 924.3H268.9c-43.3 0-84.5-18.6-113.2-51-28.7-32.4-42.2-75.6-37-118.5l63.2-521.9c9.2-75.9 73.8-133.1 150.2-133.1h359.8c76.4 0 141 57.2 150.2 133.1l63.2 521.9c5.2 43-8.3 86.2-37 118.5-28.7 32.4-69.9 51-113.2 51z m-423-764.6c-46.1 0-85.1 34.5-90.7 80.3l-63.1 522c-3.1 25.9 5 52 22.3 71.5s42.2 30.8 68.3 30.8h486.2c26.1 0 51-11.2 68.3-30.8 17.3-19.5 25.5-45.6 22.3-71.5l-63.2-521.9c-5.5-45.8-44.5-80.3-90.7-80.3H332.1z" p-id="14492" fill="#2c2c2c"></path><path d="M497.9 408.7c0 10.3-1.5 20-4.4 29s-8.2 16.7-15.7 23c-7.5 6.3-16.4 9.7-26.8 10-12.7 0-24.3-4.8-34.9-14.4-10.6-9.6-18.4-21-23.2-34.3-4.9-13.3-7.4-26-7.7-38 0-10 1.5-19.6 4.6-28.7s8.6-17 16.4-23.7 16.6-10 26.3-10c13 0 24.8 4.9 35.4 14.6 10.6 9.7 18.3 21.2 23 34.5 4.7 13.2 7 25.9 7 38z m-86.2 122.1c0 13.6-3.5 25.2-10.4 34.9s-16.9 14.7-29.9 14.8c-13 0.1-24.9-4.4-35.8-13.7-10.9-9.3-19.4-20.5-25.4-33.6-6-13.1-9.1-26-9.1-38.7 0-13.6 3.5-25.3 10.4-35.2s16.9-14.8 29.9-14.8 25.1 4.6 36.3 13.9c11.2 9.3 19.7 20.6 25.4 33.8 5.7 13.4 8.6 26.2 8.6 38.6z m99.5 13.1c20.1 0 41.6 8.2 64.8 24.5 23.1 16.4 42.3 36.3 57.5 59.7 15.2 23.4 23.1 44.9 23.7 64.4 0 8-1.5 14.4-4.6 19.5-3.1 5-7.1 8.8-12.2 11.3-5 2.5-10.4 4.3-16.1 5.5-5.8 1.2-12.2 1.6-19.2 1.3-11.5 0-27.4-3.8-47.5-11.3-20.2-7.5-35.7-11.4-46.4-11.5-10.8-0.1-26.8 3.5-48.2 11.1-21.4 7.5-38.3 11.3-50.6 11.3-31 0-46.4-12.4-46.4-37.2 0-14.4 4.7-30.4 14.2-48 9.4-17.5 21.2-33.8 35.4-48.9 14.2-15 30-27.3 47.5-36.7 17.2-9.4 33.4-14.4 48.1-15z m60.6-73.3c-10 0-18.9-3.3-26.5-10-7.7-6.6-13-14.3-15.9-23-2.9-8.7-4.6-18.4-4.9-29 0-12.4 2.6-25.1 7.7-38s12.8-24.5 23-34.5 21.7-14.9 34.7-14.6c10.3 0 19.2 3.3 26.8 10s12.8 14.5 15.9 23.7c3.1 9.1 4.8 18.7 5.1 28.7 0 12.4-2.6 25.1-7.7 38-5.2 13-12.9 24.4-23.2 34.3-10.4 9.9-22 14.7-35 14.4z m109.3-26.1c13 0 22.9 4.9 29.9 14.8 6.9 9.9 10.5 21.6 10.8 35.2 0 12.4-3 25.3-9.1 38.7-6 13.4-14.4 24.6-25.2 33.6-10.8 9-22.6 13.6-35.6 13.7-13 0.1-23-4.8-30.1-14.8-7.1-10-10.8-21.7-11.1-34.9 0-12.4 3-25.2 9.1-38.5 6-13.3 14.5-24.5 25.4-33.8 10.9-9.3 22.9-14 35.9-14z" p-id="14493" fill="#2c2c2c"></path></svg>