<?xml version="1.0" standalone="no"?><!DOCTYPE svg PUBLIC "-//W3C//DTD SVG 1.1//EN" "http://www.w3.org/Graphics/SVG/1.1/DTD/svg11.dtd"><svg t="1762863512825" class="icon" viewBox="0 0 1024 1024" version="1.1" xmlns="http://www.w3.org/2000/svg" p-id="9292" xmlns:xlink="http://www.w3.org/1999/xlink" width="200" height="200"><path d="M661.504 524.8c-13.824 0-24.576 11.264-24.576 24.576 0 13.824 11.264 24.576 24.576 24.576 13.824 0 24.576-11.264 24.576-24.576 0.512-13.824-10.752-24.576-24.576-24.576z m0 0" p-id="9293" fill="#1296db"></path><path d="M279.552 461.824c-17.408-12.288-48.128-15.36-51.2 24.576-3.072 39.936 90.112 81.408 104.96 115.2 14.848 33.792 3.072 46.08-23.552 48.64-26.624 3.072-110.592-93.184-122.88-109.568-12.288-16.384 0-301.568-50.176-304.64-50.176-3.072-51.2 111.104-46.08 365.056 171.52 187.904 169.984 282.624 169.984 282.624s165.888 31.232 208.384 19.456c0 0 6.144-278.016-11.776-314.88-17.408-36.864-160.256-114.176-177.664-126.464m598.016-225.28c-50.176 3.072-38.4 288.256-50.176 304.64-12.288 16.384-96.256 112.64-122.88 109.568-26.624-3.072-38.4-14.848-23.552-48.64 14.848-33.792 108.032-75.264 104.96-115.2-3.072-39.936-33.792-36.352-51.2-24.576-17.408 12.288-160.256 89.6-178.176 126.464-17.92 36.864-11.776 314.88-11.776 314.88 43.008 11.776 208.384-19.456 208.384-19.456s-1.536-94.72 169.984-282.624c5.632-253.952 5.12-368.128-45.568-365.056z m0 0M604.16 76.8c-18.944 0-37.888 4.096-55.296 12.288-13.312 6.144-25.6 14.848-36.352 25.6-10.752-10.24-23.04-18.944-36.352-25.6-17.408-8.192-36.352-12.288-55.296-12.288-33.28 0-64 12.8-87.04 35.328-23.04 23.04-35.328 53.76-35.328 87.04 0 80.896 69.12 144.384 173.056 239.616l4.096 4.096 36.864 32.768 7.168-6.656 29.184-26.624 4.096-4.096c104.448-95.232 173.056-158.208 173.056-239.616 0-33.28-12.8-64.512-35.328-87.04C668.672 89.6 637.44 76.8 604.16 76.8z m0 0" p-id="9294" fill="#1296db"></path></svg>