<?xml version="1.0" standalone="no"?><!DOCTYPE svg PUBLIC "-//W3C//DTD SVG 1.1//EN" "http://www.w3.org/Graphics/SVG/1.1/DTD/svg11.dtd"><svg t="1765448992998" class="icon" viewBox="0 0 1024 1024" version="1.1" xmlns="http://www.w3.org/2000/svg" p-id="33203" xmlns:xlink="http://www.w3.org/1999/xlink" width="200" height="200"><path d="M278.4 155.946667l1.28 5.973333 11.733333 48.853333-78.72 10.666667-45.226666 5.76c-22.186667 2.773333-39.253333 4.693333-51.626667 5.546667l-9.173333 0.853333c0 2.346667 0.213333 5.333333 0.64 8.746667 2.56 15.786667 11.306667 29.866667 21.973333 36.266666 18.56 11.52 41.386667 19.626667 68.693333 24.106667l29.013334 4.693333 12.8 62.506667 136.106666-39.04-12.586666-31.573333c-6.613333-16.853333-12.8-32.426667-18.346667-46.933334l-9.386667-24.746666c-10.026667-27.52-38.186667-58.453333-57.173333-71.68zM264.32 106.666667c33.493333 0 92.16 53.973333 111.573333 106.24l9.386667 24.96c10.026667 26.026667 21.76 55.893333 35.2 89.6l12.8 31.573333-226.133333 64.853333-16.213334-78.933333c-32.426667-5.333333-60.586667-15.146667-84.266666-29.866667-22.186667-13.653333-37.12-39.253333-41.6-65.706666-4.906667-29.44 4.266667-55.893333 30.506666-58.026667l6.826667-0.213333c17.28-0.64 63.36-6.186667 136.533333-16.213334l-1.92-8.746666c-7.893333-38.4-2.133333-59.52 27.306667-59.52zM144 430.933333a31.786667 31.786667 0 0 1 32 0c9.813333 5.76 16 16.213333 16 27.733334s-6.186667 21.973333-16 27.733333-22.186667 5.76-32 0c-9.813333-5.76-16-16.213333-16-27.733333s6.186667-21.973333 16-27.733334z m753.066667-13.44c-17.493333 17.706667-34.986667 31.786667-46.933334 35.626667-30.933333 10.026667-129.92 10.24-243.2 1.706667l-17.92-1.493334-17.706666-1.493333c-63.146667-5.973333-106.666667-13.866667-131.2-25.6l-172.373334 51.626667 31.146667 130.986666c14.293333 60.8 25.813333 111.36 34.773333 151.68l12.16 56.533334c4.48 18.986667 9.813333 33.706667 15.786667 43.946666 4.266667 7.253333 7.68 10.666667 10.026667 11.52 2.56-1.92 5.76-6.826667 7.893333-13.653333l0.64-2.346667c6.826667-24.746667 11.306667-84.266667 12.586667-177.493333l0.64-38.4 352.213333-32.213333 6.826667 82.346666c5.973333 68.906667 11.306667 118.826667 16 150.4l1.92 11.946667c1.706667 9.813333 4.693333 16.426667 7.893333 20.053333 1.28 1.493333 1.92 1.706667 3.2 1.706667 4.693333 0 11.733333-5.76 15.786667-16.853333l0.853333-2.986667c7.253333-25.173333 17.92-115.626667 30.933333-269.226667l5.973334-72.96 7.466666-9.813333c27.52-36.693333 44.8-62.72 51.84-77.866667l2.773334-7.68z m61.013333-90.453333c2.133333 6.4 2.346667 14.72 1.28 25.173333-2.133333 22.4-10.453333 52.693333-24.96 86.826667-8.106667 18.986667-27.306667 48.426667-58.026667 89.173333l-5.12 62.08c-13.866667 163.84-24.746667 256.213333-34.133333 281.813334-9.6 26.666667-31.36 45.226667-55.68 45.226666-27.306667 0-47.36-22.186667-53.333333-57.173333l-1.92-12.373333c-5.76-38.613333-12.373333-102.826667-19.84-192.853334L435.2 679.68l-0.426667 27.946667c-1.92 83.84-6.613333 137.813333-14.72 163.84-9.6 30.933333-33.92 50.986667-61.866666 41.6-24.96-8.32-42.88-38.4-54.186667-87.253334l-10.24-47.573333c-11.946667-54.613333-29.44-130.133333-52.266667-226.133333l-24.746666-103.68 229.333333-68.693334 8.106667 5.546667c13.866667 9.6 58.88 18.56 131.413333 24.96l16 1.28c115.413333 9.173333 212.266667 8.32 235.306667 0.853333 14.72-4.906667 65.92-61.866667 80-88.32 9.173333-17.28 34.133333-18.133333 41.173333 2.986667z" fill="#7dc5eb" p-id="33204" data-spm-anchor-id="a313x.search_index.0.i104.3a333a81WDBslO" class="selected"></path></svg>