<?xml version="1.0" standalone="no"?><!DOCTYPE svg PUBLIC "-//W3C//DTD SVG 1.1//EN" "http://www.w3.org/Graphics/SVG/1.1/DTD/svg11.dtd"><svg t="1765455631938" class="icon" viewBox="0 0 1024 1024" version="1.1" xmlns="http://www.w3.org/2000/svg" p-id="1717" xmlns:xlink="http://www.w3.org/1999/xlink" width="200" height="200"><path d="M704 885.333333h-85.333333v-39.893333a43.029333 43.029333 0 0 0-42.88-42.88l0.213333-2.56v-448l-136.533333 156.16a43.029333 43.029333 0 0 1-32.213334 14.506667H234.666667c0-188.586667 171.946667-341.333333 384-341.333334a402.496 402.496 0 0 1 298.666666 126.933334 512.405333 512.405333 0 0 0-42.666666-190.933334c-21.333333-42.666667 0-64 21.333333-64s42.666667 0 64 42.666667a650.666667 650.666667 0 0 1 42.666667 213.333333 1246.165333 1246.165333 0 0 1-8.106667 143.786667A299.733333 299.733333 0 0 1 1002.666667 522.666667c0 153.386667-24.106667 384-106.666667 384h-192z" fill="#D7D7D7" p-id="1718"></path><path d="M375.253333 928a41.450667 41.450667 0 0 1 5.973334-21.333333c32.213333-52.906667 102.826667-92.586667 189.013333-103.68a52.522667 52.522667 0 0 1 5.546667-0.426667A43.029333 43.029333 0 0 1 618.666667 845.44v125.226667h-200.32a43.008 43.008 0 0 1-43.093334-42.666667z" fill="#D7D7D7" p-id="1719"></path><path d="M576 480v320l-0.213333 2.56a52.522667 52.522667 0 0 0-5.546667 0.426667c-86.186667 11.093333-156.8 50.773333-189.013333 103.68a41.450667 41.450667 0 0 0-5.973334 21.333333h-110.506666a41.450667 41.450667 0 0 0-5.973334-21.333333c-32.213333-52.906667-102.826667-92.586667-189.013333-103.68a52.522667 52.522667 0 0 0-5.546667-0.426667L64 800v-448l136.533333 156.16a43.029333 43.029333 0 0 0 32.213334 14.506667h174.506666a43.029333 43.029333 0 0 0 32.213334-14.506667L576 352z m-128 234.666667a42.666667 42.666667 0 1 0-42.666667 42.666666 42.794667 42.794667 0 0 0 42.666667-42.666666z m-213.333333 0a42.666667 42.666667 0 1 0-42.666667 42.666666 42.794667 42.794667 0 0 0 42.666667-42.666666z" fill="#D7D7D7" p-id="1720"></path><path d="M405.333333 714.666667m-42.666666 0a42.666667 42.666667 0 1 0 85.333333 0 42.666667 42.666667 0 1 0-85.333333 0Z" fill="#EFF1F4" p-id="1721"></path><path d="M264.746667 928a43.008 43.008 0 0 1-43.093334 42.666667H21.333333v-125.226667a43.029333 43.029333 0 0 1 42.88-42.88 52.522667 52.522667 0 0 1 5.546667 0.426667c86.186667 11.093333 156.8 50.773333 189.013333 103.68a41.450667 41.450667 0 0 1 5.973334 21.333333z" fill="#D7D7D7" p-id="1722"></path><path d="M192 714.666667m-42.666667 0a42.666667 42.666667 0 1 0 85.333334 0 42.666667 42.666667 0 1 0-85.333334 0Z" fill="#EFF1F4" p-id="1723"></path><path d="M896 928h-192a21.333333 21.333333 0 0 1-21.333333-21.333333v-42.666667a64 64 0 0 1 64-64h85.333333v42.666667h-85.333333a21.333333 21.333333 0 0 0-21.333334 21.333333v21.333333h170.666667zM597.333333 800h-42.666666V408.810667l-99.136 113.408A64.490667 64.490667 0 0 1 407.253333 544H234.666667a65.450667 65.450667 0 0 1-50.112-21.717333L85.333333 408.810667V800H42.666667v-448a21.333333 21.333333 0 0 1 37.397333-14.037333l136.533333 156.16a21.653333 21.653333 0 0 0 16.149334 7.210666h174.506666a21.738667 21.738667 0 0 0 16.234667-7.296l136.533333-156.074666A21.333333 21.333333 0 0 1 597.333333 352z" fill="#2A3244" p-id="1724"></path><path d="M341.333333 864c-35.904 0-64-37.482667-64-85.333333h42.666667c0 26.048 12.629333 42.666667 21.333333 42.666666a21.098667 21.098667 0 0 0 21.333334-21.333333h42.666666a64 64 0 0 1-64 64z" fill="#2A3244" p-id="1725"></path><path d="M256 864a64 64 0 0 1-64-64h42.666667a21.098667 21.098667 0 0 0 21.333333 21.333333c8.704 0 21.333333-16.618667 21.333333-42.666666h42.666667c0 47.850667-28.096 85.333333-64 85.333333zM533.333333 586.666667h-42.666666c0-71.765333 37.482667-128 85.333333-128v42.666666c-20.138667 0-42.666667 36.501333-42.666667 85.333334zM149.333333 586.666667H106.666667c0-48.832-22.528-85.333333-42.666667-85.333334v-42.666666c47.850667 0 85.333333 56.234667 85.333333 128z" fill="#2A3244" p-id="1726"></path><path d="M896 928v-42.666667c47.850667 0 85.333333-159.317333 85.333333-362.666666a279.317333 279.317333 0 0 0-7.530666-64.597334 21.205333 21.205333 0 0 1-0.426667-7.424A1222.250667 1222.250667 0 0 0 981.333333 309.333333a629.952 629.952 0 0 0-41.045333-205.184C925.482667 74.666667 915.008 74.666667 896 74.666667a8.405333 8.405333 0 0 0-7.232 3.584c-2.624 4.266667-2.688 14.208 4.992 29.546666A531.008 531.008 0 0 1 938.666667 308.202667a21.333333 21.333333 0 0 1-37.12 14.421333A380.885333 380.885333 0 0 0 618.666667 202.666667c-199.978667 0-362.666667 143.552-362.666667 320h-42.666667c0-199.978667 181.824-362.666667 405.333334-362.666667a430.933333 430.933333 0 0 1 273.365333 94.912 539.328 539.328 0 0 0-37.098667-129.493333 68.970667 68.970667 0 0 1-2.474666-69.610667A50.666667 50.666667 0 0 1 896 32c29.44 0 57.941333 4.266667 83.2 54.464A673.365333 673.365333 0 0 1 1024 309.333333a1268.224 1268.224 0 0 1-7.808 142.592A322.517333 322.517333 0 0 1 1024 522.666667c0 95.082667-9.237333 405.333333-128 405.333333zM618.666667 864h85.333333v42.666667h-85.333333z" fill="#2A3244" p-id="1727"></path><path d="M746.666667 821.333333h-42.666667c0-131.584 65.6-234.666667 149.333333-234.666666v42.666666c-57.813333 0-106.666667 87.914667-106.666666 192zM618.666667 992h-200.32a64.298667 64.298667 0 0 1-64.426667-64 62.186667 62.186667 0 0 1 8.981333-32.234667c36.266667-59.584 112.704-102.101333 204.629334-113.962666 3.136-0.32 5.845333-0.576 8.256-0.576A64.64 64.64 0 0 1 640 845.44v125.226667a21.333333 21.333333 0 0 1-21.333333 21.333333z m-43.072-168.106667c-0.810667 0-1.92 0.170667-3.029334 0.298667-77.589333 10.005333-144.085333 45.866667-173.098666 93.568a19.925333 19.925333 0 0 0-2.88 10.24 21.610667 21.610667 0 0 0 21.76 21.333333H597.333333v-103.893333a21.802667 21.802667 0 0 0-21.738666-21.546667zM221.653333 992H21.333333a21.333333 21.333333 0 0 1-21.333333-21.333333v-125.226667a64.597333 64.597333 0 0 1 64-64.213333c1.514667 0.106667 5.333333 0.256 8.042667 0.554666 92.330667 11.882667 168.789333 54.4 204.928 113.792a62.464 62.464 0 0 1 9.088 32.426667 64.298667 64.298667 0 0 1-64.405334 64zM42.666667 949.333333h178.986666a21.610667 21.610667 0 0 0 21.76-21.333333 20.394667 20.394667 0 0 0-2.965333-10.432C211.52 870.058667 145.066667 834.133333 67.029333 824.149333a23.68 23.68 0 0 0-2.816-0.256A21.76 21.76 0 0 0 42.666667 845.44z" fill="#2A3244" p-id="1728"></path><path d="M256 906.666667h128v42.666666h-128zM405.333333 778.666667a64 64 0 1 1 64-64 64 64 0 0 1-64 64z m0-85.333334a21.333333 21.333333 0 1 0 21.333334 21.333334 21.333333 21.333333 0 0 0-21.333334-21.333334zM192 778.666667a64 64 0 1 1 64-64 64 64 0 0 1-64 64z m0-85.333334a21.333333 21.333333 0 1 0 21.333333 21.333334 21.333333 21.333333 0 0 0-21.333333-21.333334zM277.333333 522.666667h42.666667v106.666666h-42.666667zM341.333333 522.666667h42.666667v85.333333h-42.666667zM213.333333 522.666667h42.666667v85.333333h-42.666667z" fill="#2A3244" p-id="1729"></path></svg>