<?xml version="1.0" standalone="no"?><!DOCTYPE svg PUBLIC "-//W3C//DTD SVG 1.1//EN" "http://www.w3.org/Graphics/SVG/1.1/DTD/svg11.dtd"><svg t="1762857255798" class="icon" viewBox="0 0 1024 1024" version="1.1" xmlns="http://www.w3.org/2000/svg" p-id="71946" xmlns:xlink="http://www.w3.org/1999/xlink" width="200" height="200"><path d="M773.82 794.22H738.8v-70.05c0-39.4-17.51-78.81-48.16-109.45l-52.54-52.53-26.27-26.27-8.76-4.38s-4.38 0-4.38-4.38c-4.38-4.38-8.76-13.13-8.76-21.89 0-8.75 4.38-17.51 8.76-21.89 0 0 0-4.38 4.38-4.38l13.14-8.76 4.38-8.75 17.51-17.51 56.91-52.54c30.65-26.27 43.78-65.67 43.78-105.07v-70.05h35.02c17.51 0 35.03-13.14 35.03-26.27 0-13.13-13.13-26.27-35.03-26.27H257.2c-17.51 0-35.02 13.13-35.02 26.27 0 13.13 13.13 26.27 35.02 26.27h35.03v65.67c0 39.4 17.51 78.81 48.16 109.45l83.19 83.19 8.75 4.38 4.38 4.38c4.38 4.38 8.75 13.13 8.75 21.89v8.76c0 4.38-4.38 13.13-8.75 17.51h-4.38l-8.75 8.76-61.29 56.91-21.89 21.89c-30.65 26.27-48.16 65.67-48.16 109.45v70.05h-39.4c-17.51 0-35.03 13.14-35.03 26.27s13.13 26.27 35.03 26.27h520.99c17.51 0 35.03-13.13 35.03-26.27-0.02-17.52-13.15-30.66-35.04-30.66z m-429.05-70.05c0-26.27 13.13-52.53 30.65-70.05l61.29-61.29 48.16-43.78c4.38-8.76 4.38-13.13 8.76-21.89 0-8.76 4.38-13.13 4.38-21.89v-21.89c0-4.38 0-8.76-4.38-13.14v-4.38c-8.76-4.38-8.76-4.38-13.13-8.76L375.41 352.04c-21.89-17.51-30.65-43.78-30.65-70.05v-65.67h345.87v65.67c0 26.27-13.13 52.54-30.65 70.05l-70.05 65.67-35.03 35.03c-4.38 8.75-8.75 21.89-8.75 30.65v17.51c0 8.76 0 13.14 4.38 21.89 0 13.13 4.38 30.65 13.13 39.4l91.94 91.94c21.89 17.51 30.65 43.78 30.65 70.05v70.05H344.77v-70.06z m0 0" p-id="71947"></path><path d="M541.78 623.48c-8.75-8.76-26.27-8.76-39.4 0l-65.67 56.91c-13.13 8.75-21.89 26.27-21.89 43.78v30.65h210.15v-30.65c0-13.13-8.75-30.65-21.89-43.78l-61.3-56.91z m0 0" p-id="71948"></path></svg>