<?xml version="1.0" standalone="no"?><!DOCTYPE svg PUBLIC "-//W3C//DTD SVG 1.1//EN" "http://www.w3.org/Graphics/SVG/1.1/DTD/svg11.dtd"><svg t="1765455380591" class="icon" viewBox="0 0 1024 1024" version="1.1" xmlns="http://www.w3.org/2000/svg" p-id="12564" xmlns:xlink="http://www.w3.org/1999/xlink" width="200" height="200"><path d="M 512 73 C 269.55 73 73 269.55 73 512 s 196.55 439 439 439 s 439 -196.55 439 -439 S 754.45 73 512 73 Z m 367.54 503.23 s -17.62 14.97 -49.62 22.31 l -99.82 -2.06 s -52.55 0 -70.76 48.44 c 0 0 -51.97 189.66 -169.11 248.38 c 0 0 -89.84 -37.58 -156.19 -187.9 l -30.24 -86.61 s -11.45 -56.37 -70.75 -41.98 c 0 0 -37.58 22.02 -73.69 -8.51 c 0 0 -22.9 -31.71 -36.11 -60.77 c 0 0 30.24 -25.84 34.65 -53.43 c 0 0 17.03 -89.54 63.42 -112.74 c 0 0 6.17 -23.19 -4.11 -41.98 c 0 0 -23.2 -36.11 -26.13 -56.37 c 0 0 15.85 -8.81 75.16 30.24 c 0 0 22.02 17.62 18.2 -8.51 c 0 0 -15.56 -42.87 -16.15 -46.39 c 0 0 9.1 -9.98 53.73 38.46 c 0 0 14.97 21.72 41.69 23.78 c 0 0 86.02 6.75 129.47 125.07 c 0 0 22.61 -49.91 62.24 -79.56 c 0 0 15.85 -12.33 19.38 -24.66 c 0 0 31.71 -116.26 39.64 -127.12 c 0 0 15.85 16.73 36.11 83.97 c 0 0 20.55 -69.88 27.6 -78.68 c 0 0 35.82 23.19 24.37 155.31 c 0 0 33.47 14.97 52.26 33.18 c 0 0 12.04 13.21 19.38 40.52 c 0 0 30.53 37.29 148.26 85.14 c -0.01 -0.03 12.02 36.08 -42.88 82.47 Z" fill="#7dc5eb" p-id="12565" data-spm-anchor-id="a313x.search_index.0.i2.285d3a815R1Zp8" class="selected"></path><path d="M 497.19 526.87 c -46.3 -45.41 -103.45 -31.35 -103.45 33.63 c 0 62.48 95.52 120.58 103.19 125.15 v 0.3 s 0.09 -0.05 0.25 -0.15 c 0.16 0.09 0.25 0.15 0.25 0.15 v -0.3 c 7.68 -4.57 103.19 -62.67 103.19 -125.15 c 0.02 -64.98 -57.13 -79.05 -103.43 -33.63 Z" fill="#7dc5eb" p-id="12566" data-spm-anchor-id="a313x.search_index.0.i4.285d3a815R1Zp8" class="selected"></path></svg>