<?xml version="1.0" standalone="no"?><!DOCTYPE svg PUBLIC "-//W3C//DTD SVG 1.1//EN" "http://www.w3.org/Graphics/SVG/1.1/DTD/svg11.dtd"><svg t="1762857220213" class="icon" viewBox="0 0 1024 1024" version="1.1" xmlns="http://www.w3.org/2000/svg" p-id="69999" xmlns:xlink="http://www.w3.org/1999/xlink" width="200" height="200"><path d="M512 512m-512 0a512 512 0 1 0 1024 0 512 512 0 1 0-1024 0Z" fill="#1893FE" p-id="70000"></path><path d="M430.665842 6.509623C224.649412 39.373222 59.62217 195.122506 13.107148 396.253708c52.227499 73.383171 137.980879 121.246839 234.912363 121.246839 159.135347 0 288.139305-129.002754 288.139305-288.135693 0-89.807746-41.091541-170.012413-105.492974-222.855231z" fill="#FFFFFF" opacity=".5" p-id="70001"></path><path d="M238.934216 429.765139c0 37.057646 31.206692 68.269155 68.264339 68.269156s68.269155-31.211509 68.269155-68.269156-31.211509-68.264339-68.269155-68.264338-68.264339 31.206692-68.264339 68.264338z m122.877255-109.227035c0 37.057646 31.209101 68.269155 68.269155 68.269155s68.266747-31.211509 68.266747-68.269155-31.206692-68.264339-68.266747-68.264339-68.269155 31.206692-68.269155 68.264339z m163.841156 0c0 37.057646 31.206692 68.269155 68.269155 68.269155 37.057646 0 68.264339-31.211509 68.264339-68.269155s-31.206692-68.264339-68.264339-68.264339c-37.062463 0-68.269155 31.206692-68.269155 68.264339z m122.882071 109.227035c0 37.057646 31.206692 68.269155 68.264339 68.269156 37.060055 0 68.266747-31.211509 68.266747-68.269156s-31.206692-68.264339-68.266747-68.264338c-37.057646 0-68.264339 31.206692-68.264339 68.264338z m9.751188 146.285887c-23.406223-27.305254-42.909804-50.710273-68.266747-79.967451-13.650219-15.602142-29.257177-29.259586-46.811242-35.110539-1.949515 0-5.850954-1.949515-9.751189-1.949515-7.802877-1.947107-13.655035-1.947107-21.455504-1.947107s-13.652627 0-21.453096 1.947107c-3.901439 0-5.850954 1.949515-9.753596 1.949515-19.503581 5.850954-35.110539 21.457912-46.813651 35.110539-23.406223 27.307662-42.909804 50.712681-68.264339 79.967451-35.110539 35.108131-79.969859 76.070828-72.16939 130.68254 7.801673 27.31007 27.31007 54.61412 64.367717 64.367716 19.503581 3.89903 83.866481-11.703112 152.13684-11.703111h3.89903c68.269155 0 130.68254 15.602142 152.13684 11.703111 35.108131-7.802877 56.567248-35.108131 64.365309-64.367716 7.800469-54.611712-37.05885-95.574409-72.166982-130.68254z m0 0" fill="#FFFFFF" p-id="70002"></path></svg>