<?xml version="1.0" standalone="no"?><!DOCTYPE svg PUBLIC "-//W3C//DTD SVG 1.1//EN" "http://www.w3.org/Graphics/SVG/1.1/DTD/svg11.dtd"><svg t="1762517216900" class="icon" viewBox="0 0 1024 1024" version="1.1" xmlns="http://www.w3.org/2000/svg" p-id="4589" xmlns:xlink="http://www.w3.org/1999/xlink" width="200" height="200"><path d="M512 1024a512 512 0 1 1 512-512 512.170667 512.170667 0 0 1-512 512z m0-928.085333A416.085333 416.085333 0 1 0 928.085333 512 416.187733 416.187733 0 0 0 512 95.914667z m272.384 292.522666L398.336 774.826667l-72.362667-72.362667L204.8 581.290667l2.730667-2.730667a50.4832 50.4832 0 0 1 67.242666-67.242667l2.389334-2.389333 11.605333 11.605333c0.341333 0.341333 0.682667 0.341333 1.024 0.682667s0.341333 0.682667 0.682667 1.024l107.861333 107.861333 301.738667-301.738666v-0.341334h0.341333l11.605333-11.946666 2.389334 2.389333a50.449067 50.449067 0 0 1 67.584 67.584z" fill="#ffffff" p-id="4590"></path></svg>