<?xml version="1.0" standalone="no"?><!DOCTYPE svg PUBLIC "-//W3C//DTD SVG 1.1//EN" "http://www.w3.org/Graphics/SVG/1.1/DTD/svg11.dtd"><svg class="icon" width="200px" height="200.00px" viewBox="0 0 1024 1024" version="1.1" xmlns="http://www.w3.org/2000/svg"><path d="M54.272 892.928a448.512 128 0 1 0 897.024 0 448.512 128 0 1 0-897.024 0Z" fill="#EEF2FF" /><path d="M644.096 911.36H157.696c-17.408 0-30.72-13.312-30.72-30.72V99.328c0-17.408 13.312-30.72 30.72-30.72h690.176c17.408 0 30.72 13.312 30.72 30.72v577.536C878.592 805.888 773.12 911.36 644.096 911.36z" fill="#4E8EFF" /><path d="M402.432 471.04H273.408c-20.48 0-36.864-16.384-36.864-36.864s16.384-36.864 36.864-36.864h128c20.48 0 36.864 16.384 36.864 36.864S421.888 471.04 402.432 471.04zM567.296 654.336H273.408c-20.48 0-36.864-16.384-36.864-36.864s16.384-36.864 36.864-36.864h292.864c20.48 0 36.864 16.384 36.864 36.864s-16.384 36.864-35.84 36.864z" fill="#FFFFFF" /><path d="M804.864 306.176l-100.352-72.704-101.376 72.704V31.744h201.728z" fill="#70D4FF" /></svg>