<?xml version="1.0" standalone="no"?><!DOCTYPE svg PUBLIC "-//W3C//DTD SVG 1.1//EN" "http://www.w3.org/Graphics/SVG/1.1/DTD/svg11.dtd"><svg class="icon" width="200px" height="200.00px" viewBox="0 0 1024 1024" version="1.1" xmlns="http://www.w3.org/2000/svg"><path d="M853.504 90.624h-134.656l-3.072 19.456c-4.096 27.648-28.16 48.64-55.808 48.64H341.504c-28.16 0-52.224-20.992-56.32-48.64l-3.072-19.456H170.496c-87.552 0-159.232 71.68-159.232 159.232v614.4c0 87.552 71.68 159.232 159.232 159.232h682.496c87.552 0 159.232-71.168 159.232-159.232v-614.4c0.512-87.552-71.168-159.232-158.72-159.232z" fill="#FBF5D3" /><path d="M853.504 162.304c48.128 0 87.552 39.424 87.552 87.552v614.4c0 48.128-39.424 87.552-87.552 87.552H170.496c-48.128 0-87.552-39.424-87.552-87.552v-614.4c0-48.128 39.424-87.552 87.552-87.552h57.344c22.016 40.96 65.024 68.096 113.152 68.096h318.464c48.128 0 91.136-27.648 113.152-68.096h80.896m0-71.68h-134.656l-3.072 19.456c-4.096 27.648-28.16 48.64-55.808 48.64H341.504c-28.16 0-52.224-20.992-56.32-48.64l-3.072-19.456H170.496c-87.552 0-159.232 71.68-159.232 159.232v614.4c0 87.552 71.68 159.232 159.232 159.232h682.496c87.552 0 159.232-71.168 159.232-159.232v-614.4c0.512-87.552-71.168-159.232-158.72-159.232z" fill="#FFE56B" /><path d="M375.296 0h250.368c37.888 0 68.096 30.72 68.096 68.096s-30.72 68.096-68.096 68.096H375.296c-37.888 0-68.096-30.72-68.096-68.096S337.92 0 375.296 0zM675.328 544.256H547.84V416.768c0-19.968-15.872-35.84-35.84-35.84s-35.84 15.872-35.84 35.84v127.488H348.672c-19.968 0-35.84 15.872-35.84 35.84s15.872 35.84 35.84 35.84H476.16v127.488c0 19.968 15.872 35.84 35.84 35.84s35.84-15.872 35.84-35.84v-127.488h127.488c19.968 0 35.84-15.872 35.84-35.84s-16.384-35.84-35.84-35.84z" fill="#FFE56B" /></svg>